<!-- Generated by IcoMoon.io -->
<svg version="1.1" xmlns="http://www.w3.org/2000/svg" width="37" height="32" viewBox="0 0 37 32">
<title>list1</title>
<path d="M0 2.286c0-1.262 1.023-2.286 2.286-2.286s2.286 1.023 2.286 2.286c0 1.262-1.023 2.286-2.286 2.286s-2.286-1.023-2.286-2.286zM0 11.429c0-1.262 1.023-2.286 2.286-2.286s2.286 1.023 2.286 2.286c0 1.262-1.023 2.286-2.286 2.286s-2.286-1.023-2.286-2.286zM0 20.571c0-1.262 1.023-2.286 2.286-2.286s2.286 1.023 2.286 2.286c0 1.262-1.023 2.286-2.286 2.286s-2.286-1.023-2.286-2.286zM0 29.715c0-1.262 1.023-2.286 2.286-2.286s2.286 1.023 2.286 2.286c0 1.262-1.023 2.286-2.286 2.286s-2.286-1.023-2.286-2.286zM9.143 0h27.426v4.571h-27.426zM9.143 9.143h27.426v4.571h-27.426zM9.143 18.286h27.426v4.571h-27.426zM9.143 27.429h27.426v4.571h-27.426z"></path>
</svg>
