<svg aria-hidden="true" style="position: absolute; width: 0; height: 0; overflow: hidden;" version="1.1" xmlns="http://www.w3.org/2000/svg" xmlns:xlink="http://www.w3.org/1999/xlink">
<defs>
<symbol id="icon-resize" viewBox="0 0 32 32">
<title>resize</title>
<path d="M25.99 6.042l-0.004 9.735-3.732-3.733-4.454 4.455-2.665-2.665 4.454-4.454-3.384-3.383 9.785 0.045zM11.494 22.805l3.238 3.182-9.722 0.017 0.004-9.68 3.815 3.815 4.925-4.924 2.665 2.665-4.925 4.925z"></path>
</symbol>
<symbol id="icon-loop" viewBox="0 0 32 32">
<title>loop</title>
<path d="M20 16v4h4.738l-5.371 5.371c-3.389 3.396-9.309 3.396-12.701 0l-2.83 2.824c2.451 2.454 5.715 3.805 9.184 3.805 3.471 0 6.727-1.352 9.175-3.805l5.805-5.8v5.605h4v-12h-12zM12 12h-4.738l5.371-5.371c3.389-3.396 9.309-3.396 12.701 0l2.83-2.824c-2.451-2.453-5.715-3.805-9.185-3.805s-6.727 1.352-9.175 3.805l-5.804 5.8v-5.605h-4v12h12v-4z"></path>
</symbol>
<symbol id="icon-home" viewBox="0 0 32 32">
<title>home</title>
<path d="M32 18.451l-16-12.42-16 12.42v-5.064l16-12.42 16 12.42zM28 18v12h-8v-8h-8v8h-8v-12l12-9z"></path>
</symbol>
<symbol id="icon-eyedropper" viewBox="0 0 32 32">
<title>eyedropper</title>
<path d="M30.828 1.172c-1.562-1.562-4.095-1.562-5.657 0l-5.379 5.379-3.793-3.793-4.243 4.243 3.326 3.326-14.754 14.754c-0.252 0.252-0.358 0.592-0.322 0.921h-0.008v5c0 0.552 0.448 1 1 1h5c0 0 0.083 0 0.125 0 0.288 0 0.576-0.11 0.795-0.329l14.754-14.754 3.326 3.326 4.243-4.243-3.793-3.793 5.379-5.379c1.562-1.562 1.562-4.095 0-5.657zM5.409 30h-3.409v-3.409l14.674-14.674 3.409 3.409-14.674 14.674z"></path>
</symbol>
<symbol id="icon-droplet" viewBox="0 0 32 32">
<title>droplet</title>
<path d="M27.020 14.786c-2.055-5.732-6.41-10.88-11.020-14.786-4.61 3.907-8.965 9.054-11.020 14.786-1.271 3.545-1.396 7.393 0.393 10.794 2.058 3.911 6.207 6.42 10.626 6.42s8.569-2.509 10.626-6.42c1.79-3.401 1.664-7.249 0.393-10.794zM23.086 23.717c-1.369 2.602-4.15 4.283-7.086 4.283-1.723 0-3.391-0.579-4.753-1.583 0.414 0.054 0.832 0.083 1.254 0.083 3.67 0 7.146-2.1 8.856-5.351 1.402-2.665 1.281-5.433 0.746-7.636 0.455 0.88 0.841 1.756 1.151 2.623 0.706 1.971 1.251 4.886-0.168 7.581z"></path>
</symbol>
<symbol id="icon-paint-format" viewBox="0 0 32 32">
<title>paint-format</title>
<path d="M32 18v-12h-6v-2c0-1.1-0.9-2-2-2h-22c-1.1 0-2 0.9-2 2v6c0 1.1 0.9 2 2 2h22c1.1 0 2-0.9 2-2v-2h4v8h-18v4h-1c-0.552 0-1 0.448-1 1v10c0 0.552 0.448 1 1 1h4c0.552 0 1-0.448 1-1v-10c0-0.552-0.448-1-1-1h-1v-2h18zM24 6h-22v-2h22v2z"></path>
</symbol>
<symbol id="icon-image" viewBox="0 0 32 32">
<title>image</title>
<path d="M29.996 4c0.001 0.001 0.003 0.002 0.004 0.004v23.993c-0.001 0.001-0.002 0.003-0.004 0.004h-27.993c-0.001-0.001-0.003-0.002-0.004-0.004v-23.993c0.001-0.001 0.002-0.003 0.004-0.004h27.993zM30 2h-28c-1.1 0-2 0.9-2 2v24c0 1.1 0.9 2 2 2h28c1.1 0 2-0.9 2-2v-24c0-1.1-0.9-2-2-2v0z"></path>
<path d="M26 9c0 1.657-1.343 3-3 3s-3-1.343-3-3 1.343-3 3-3 3 1.343 3 3z"></path>
<path d="M28 26h-24v-4l7-12 8 10h2l7-6z"></path>
</symbol>
<symbol id="icon-images" viewBox="0 0 36 32">
<title>images</title>
<path d="M34 4h-2v-2c0-1.1-0.9-2-2-2h-28c-1.1 0-2 0.9-2 2v24c0 1.1 0.9 2 2 2h2v2c0 1.1 0.9 2 2 2h28c1.1 0 2-0.9 2-2v-24c0-1.1-0.9-2-2-2zM4 6v20h-1.996c-0.001-0.001-0.003-0.002-0.004-0.004v-23.993c0.001-0.001 0.002-0.003 0.004-0.004h27.993c0.001 0.001 0.003 0.002 0.004 0.004v1.996h-24c-1.1 0-2 0.9-2 2v0zM34 29.996c-0.001 0.001-0.002 0.003-0.004 0.004h-27.993c-0.001-0.001-0.003-0.002-0.004-0.004v-23.993c0.001-0.001 0.002-0.003 0.004-0.004h27.993c0.001 0.001 0.003 0.002 0.004 0.004v23.993z"></path>
<path d="M30 11c0 1.657-1.343 3-3 3s-3-1.343-3-3 1.343-3 3-3 3 1.343 3 3z"></path>
<path d="M32 28h-24v-4l7-12 8 10h2l7-6z"></path>
</symbol>
<symbol id="icon-play" viewBox="0 0 32 32">
<title>play</title>
<path d="M30.662 5.003c-4.488-0.645-9.448-1.003-14.662-1.003s-10.174 0.358-14.662 1.003c-0.86 3.366-1.338 7.086-1.338 10.997s0.477 7.63 1.338 10.997c4.489 0.645 9.448 1.003 14.662 1.003s10.174-0.358 14.662-1.003c0.86-3.366 1.338-7.086 1.338-10.997s-0.477-7.63-1.338-10.997zM12 22v-12l10 6-10 6z"></path>
</symbol>
<symbol id="icon-film" viewBox="0 0 32 32">
<title>film</title>
<path d="M0 4v24h32v-24h-32zM6 26h-4v-4h4v4zM6 18h-4v-4h4v4zM6 10h-4v-4h4v4zM24 26h-16v-20h16v20zM30 26h-4v-4h4v4zM30 18h-4v-4h4v4zM30 10h-4v-4h4v4zM12 10v12l8-6z"></path>
</symbol>
<symbol id="icon-video-camera" viewBox="0 0 32 32">
<title>video-camera</title>
<path d="M12 9c0-2.761 2.239-5 5-5s5 2.239 5 5c0 2.761-2.239 5-5 5s-5-2.239-5-5zM0 9c0-2.761 2.239-5 5-5s5 2.239 5 5c0 2.761-2.239 5-5 5s-5-2.239-5-5zM24 19v-3c0-1.1-0.9-2-2-2h-20c-1.1 0-2 0.9-2 2v10c0 1.1 0.9 2 2 2h20c1.1 0 2-0.9 2-2v-3l8 5v-14l-8 5zM20 24h-16v-6h16v6z"></path>
</symbol>
<symbol id="icon-file-text2" viewBox="0 0 32 32">
<title>file-text2</title>
<path d="M28.681 7.159c-0.694-0.947-1.662-2.053-2.724-3.116s-2.169-2.030-3.116-2.724c-1.612-1.182-2.393-1.319-2.841-1.319h-15.5c-1.378 0-2.5 1.121-2.5 2.5v27c0 1.378 1.122 2.5 2.5 2.5h23c1.378 0 2.5-1.122 2.5-2.5v-19.5c0-0.448-0.137-1.23-1.319-2.841zM24.543 5.457c0.959 0.959 1.712 1.825 2.268 2.543h-4.811v-4.811c0.718 0.556 1.584 1.309 2.543 2.268zM28 29.5c0 0.271-0.229 0.5-0.5 0.5h-23c-0.271 0-0.5-0.229-0.5-0.5v-27c0-0.271 0.229-0.5 0.5-0.5 0 0 15.499-0 15.5 0v7c0 0.552 0.448 1 1 1h7v19.5z"></path>
<path d="M23 26h-14c-0.552 0-1-0.448-1-1s0.448-1 1-1h14c0.552 0 1 0.448 1 1s-0.448 1-1 1z"></path>
<path d="M23 22h-14c-0.552 0-1-0.448-1-1s0.448-1 1-1h14c0.552 0 1 0.448 1 1s-0.448 1-1 1z"></path>
<path d="M23 18h-14c-0.552 0-1-0.448-1-1s0.448-1 1-1h14c0.552 0 1 0.448 1 1s-0.448 1-1 1z"></path>
</symbol>
<symbol id="icon-file-picture" viewBox="0 0 32 32">
<title>file-picture</title>
<path d="M26 28h-20v-4l6-10 8.219 10 5.781-4v8z"></path>
<path d="M26 15c0 1.657-1.343 3-3 3s-3-1.343-3-3 1.343-3 3-3c1.657 0 3 1.343 3 3z"></path>
<path d="M28.681 7.159c-0.694-0.947-1.662-2.053-2.724-3.116s-2.169-2.030-3.116-2.724c-1.612-1.182-2.393-1.319-2.841-1.319h-15.5c-1.378 0-2.5 1.121-2.5 2.5v27c0 1.378 1.122 2.5 2.5 2.5h23c1.378 0 2.5-1.122 2.5-2.5v-19.5c0-0.448-0.137-1.23-1.319-2.841zM24.543 5.457c0.959 0.959 1.712 1.825 2.268 2.543h-4.811v-4.811c0.718 0.556 1.584 1.309 2.543 2.268zM28 29.5c0 0.271-0.229 0.5-0.5 0.5h-23c-0.271 0-0.5-0.229-0.5-0.5v-27c0-0.271 0.229-0.5 0.5-0.5 0 0 15.499-0 15.5 0v7c0 0.552 0.448 1 1 1h7v19.5z"></path>
</symbol>
<symbol id="icon-file-video" viewBox="0 0 32 32">
<title>file-video</title>
<path d="M28.681 7.159c-0.694-0.947-1.662-2.053-2.724-3.116s-2.169-2.030-3.116-2.724c-1.612-1.182-2.394-1.319-2.841-1.319h-15.5c-1.378 0-2.5 1.121-2.5 2.5v27c0 1.378 1.121 2.5 2.5 2.5h23c1.378 0 2.5-1.122 2.5-2.5v-19.5c0-0.448-0.137-1.23-1.319-2.841v0 0zM24.543 5.457c0.959 0.959 1.712 1.825 2.268 2.543h-4.811v-4.811c0.718 0.556 1.584 1.309 2.543 2.268v0 0zM28 29.5c0 0.271-0.229 0.5-0.5 0.5h-23c-0.271 0-0.5-0.229-0.5-0.5v-27c0-0.271 0.229-0.5 0.5-0.5 0 0 15.499-0 15.5 0v7c0 0.552 0.448 1 1 1h7v19.5z"></path>
<path d="M8 16h10v10h-10v-10z"></path>
<path d="M18 20l6-4v10l-6-4z"></path>
</symbol>
<symbol id="icon-display" viewBox="0 0 32 32">
<title>display</title>
<path d="M0 2v20h32v-20h-32zM30 20h-28v-16h28v16zM21 24h-10l-1 4-2 2h16l-2-2z"></path>
</symbol>
<symbol id="icon-mobile" viewBox="0 0 32 32">
<title>mobile</title>
<path d="M23 0h-14c-1.65 0-3 1.35-3 3v26c0 1.65 1.35 3 3 3h14c1.65 0 3-1.35 3-3v-26c0-1.65-1.35-3-3-3zM12 1.5h8v1h-8v-1zM16 30c-1.105 0-2-0.895-2-2s0.895-2 2-2 2 0.895 2 2-0.895 2-2 2zM24 24h-16v-20h16v20z"></path>
</symbol>
<symbol id="icon-tablet" viewBox="0 0 32 32">
<title>tablet</title>
<path d="M25 0h-20c-1.65 0-3 1.35-3 3v26c0 1.65 1.35 3 3 3h20c1.65 0 3-1.35 3-3v-26c0-1.65-1.35-3-3-3zM15 31c-0.552 0-1-0.448-1-1s0.448-1 1-1 1 0.448 1 1-0.448 1-1 1zM24 28h-18v-24h18v24z"></path>
</symbol>
<symbol id="icon-undo" viewBox="0 0 32 32">
<title>undo</title>
<path d="M16 2c-4.418 0-8.418 1.791-11.313 4.687l-4.686-4.687v12h12l-4.485-4.485c2.172-2.172 5.172-3.515 8.485-3.515 6.627 0 12 5.373 12 12 0 3.584-1.572 6.801-4.063 9l2.646 3c3.322-2.932 5.417-7.221 5.417-12 0-8.837-7.163-16-16-16z"></path>
</symbol>
<symbol id="icon-redo" viewBox="0 0 32 32">
<title>redo</title>
<path d="M0 18c0 4.779 2.095 9.068 5.417 12l2.646-3c-2.491-2.199-4.063-5.416-4.063-9 0-6.627 5.373-12 12-12 3.314 0 6.314 1.343 8.485 3.515l-4.485 4.485h12v-12l-4.687 4.687c-2.895-2.896-6.895-4.687-11.313-4.687-8.837 0-16 7.163-16 16z"></path>
</symbol>
<symbol id="icon-undo2" viewBox="0 0 32 32">
<title>undo2</title>
<path d="M23.808 32c3.554-6.439 4.153-16.26-9.808-15.932v7.932l-12-12 12-12v7.762c16.718-0.436 18.58 14.757 9.808 24.238z"></path>
</symbol>
<symbol id="icon-redo2" viewBox="0 0 32 32">
<title>redo2</title>
<path d="M18 7.762v-7.762l12 12-12 12v-7.932c-13.961-0.328-13.362 9.493-9.808 15.932-8.772-9.482-6.909-24.674 9.808-24.238z"></path>
</symbol>
<symbol id="icon-user" viewBox="0 0 32 32">
<title>user</title>
<path d="M18 22.082v-1.649c2.203-1.241 4-4.337 4-7.432 0-4.971 0-9-6-9s-6 4.029-6 9c0 3.096 1.797 6.191 4 7.432v1.649c-6.784 0.555-12 3.888-12 7.918h28c0-4.030-5.216-7.364-12-7.918z"></path>
</symbol>
<symbol id="icon-users" viewBox="0 0 36 32">
<title>users</title>
<path d="M24 24.082v-1.649c2.203-1.241 4-4.337 4-7.432 0-4.971 0-9-6-9s-6 4.029-6 9c0 3.096 1.797 6.191 4 7.432v1.649c-6.784 0.555-12 3.888-12 7.918h28c0-4.030-5.216-7.364-12-7.918z"></path>
<path d="M10.225 24.854c1.728-1.13 3.877-1.989 6.243-2.513-0.47-0.556-0.897-1.176-1.265-1.844-0.95-1.726-1.453-3.627-1.453-5.497 0-2.689 0-5.228 0.956-7.305 0.928-2.016 2.598-3.265 4.976-3.734-0.529-2.39-1.936-3.961-5.682-3.961-6 0-6 4.029-6 9 0 3.096 1.797 6.191 4 7.432v1.649c-6.784 0.555-12 3.888-12 7.918h8.719c0.454-0.403 0.956-0.787 1.506-1.146z"></path>
</symbol>
<symbol id="icon-user-tie" viewBox="0 0 32 32">
<title>user-tie</title>
<path d="M10 6c0-3.314 2.686-6 6-6s6 2.686 6 6c0 3.314-2.686 6-6 6s-6-2.686-6-6zM24.002 14h-1.107l-6.222 12.633 2.327-11.633-3-3-3 3 2.327 11.633-6.222-12.633h-1.107c-3.998 0-3.998 2.687-3.998 6v10h24v-10c0-3.313 0-6-3.998-6z"></path>
</symbol>
<symbol id="icon-search" viewBox="0 0 32 32">
<title>search</title>
<path d="M31.008 27.231l-7.58-6.447c-0.784-0.705-1.622-1.029-2.299-0.998 1.789-2.096 2.87-4.815 2.87-7.787 0-6.627-5.373-12-12-12s-12 5.373-12 12 5.373 12 12 12c2.972 0 5.691-1.081 7.787-2.87-0.031 0.677 0.293 1.515 0.998 2.299l6.447 7.58c1.104 1.226 2.907 1.33 4.007 0.23s0.997-2.903-0.23-4.007zM12 20c-4.418 0-8-3.582-8-8s3.582-8 8-8 8 3.582 8 8-3.582 8-8 8z"></path>
</symbol>
<symbol id="icon-zoom-in" viewBox="0 0 32 32">
<title>zoom-in</title>
<path d="M31.008 27.231l-7.58-6.447c-0.784-0.705-1.622-1.029-2.299-0.998 1.789-2.096 2.87-4.815 2.87-7.787 0-6.627-5.373-12-12-12s-12 5.373-12 12 5.373 12 12 12c2.972 0 5.691-1.081 7.787-2.87-0.031 0.677 0.293 1.515 0.998 2.299l6.447 7.58c1.104 1.226 2.907 1.33 4.007 0.23s0.997-2.903-0.23-4.007zM12 20c-4.418 0-8-3.582-8-8s3.582-8 8-8 8 3.582 8 8-3.582 8-8 8zM14 6h-4v4h-4v4h4v4h4v-4h4v-4h-4z"></path>
</symbol>
<symbol id="icon-zoom-out" viewBox="0 0 32 32">
<title>zoom-out</title>
<path d="M31.008 27.231l-7.58-6.447c-0.784-0.705-1.622-1.029-2.299-0.998 1.789-2.096 2.87-4.815 2.87-7.787 0-6.627-5.373-12-12-12s-12 5.373-12 12 5.373 12 12 12c2.972 0 5.691-1.081 7.787-2.87-0.031 0.677 0.293 1.515 0.998 2.299l6.447 7.58c1.104 1.226 2.907 1.33 4.007 0.23s0.997-2.903-0.23-4.007zM12 20c-4.418 0-8-3.582-8-8s3.582-8 8-8 8 3.582 8 8-3.582 8-8 8zM6 10h12v4h-12z"></path>
</symbol>
<symbol id="icon-enlarge1" viewBox="0 0 32 32">
<title>enlarge1</title>
<path d="M32 0h-13l5 5-6 6 3 3 6-6 5 5z"></path>
<path d="M32 32v-13l-5 5-6-6-3 3 6 6-5 5z"></path>
<path d="M0 32h13l-5-5 6-6-3-3-6 6-5-5z"></path>
<path d="M0 0v13l5-5 6 6 3-3-6-6 5-5z"></path>
</symbol>
<symbol id="icon-shrink" viewBox="0 0 32 32">
<title>shrink</title>
<path d="M18 14h13l-5-5 6-6-3-3-6 6-5-5z"></path>
<path d="M18 18v13l5-5 6 6 3-3-6-6 5-5z"></path>
<path d="M14 18h-13l5 5-6 6 3 3 6-6 5 5z"></path>
<path d="M14 14v-13l-5 5-6-6-3 3 6 6-5 5z"></path>
</symbol>
<symbol id="icon-enlarge2" viewBox="0 0 32 32">
<title>enlarge2</title>
<path d="M32 0v13l-5-5-6 6-3-3 6-6-5-5zM14 21l-6 6 5 5h-13v-13l5 5 6-6z"></path>
</symbol>
<symbol id="icon-shrink2" viewBox="0 0 32 32">
<title>shrink2</title>
<path d="M14 18v13l-5-5-6 6-3-3 6-6-5-5zM32 3l-6 6 5 5h-13v-13l5 5 6-6z"></path>
</symbol>
<symbol id="icon-equalizer" viewBox="0 0 32 32">
<title>equalizer</title>
<path d="M14 4v-0.5c0-0.825-0.675-1.5-1.5-1.5h-5c-0.825 0-1.5 0.675-1.5 1.5v0.5h-6v4h6v0.5c0 0.825 0.675 1.5 1.5 1.5h5c0.825 0 1.5-0.675 1.5-1.5v-0.5h18v-4h-18zM8 8v-4h4v4h-4zM26 13.5c0-0.825-0.675-1.5-1.5-1.5h-5c-0.825 0-1.5 0.675-1.5 1.5v0.5h-18v4h18v0.5c0 0.825 0.675 1.5 1.5 1.5h5c0.825 0 1.5-0.675 1.5-1.5v-0.5h6v-4h-6v-0.5zM20 18v-4h4v4h-4zM14 23.5c0-0.825-0.675-1.5-1.5-1.5h-5c-0.825 0-1.5 0.675-1.5 1.5v0.5h-6v4h6v0.5c0 0.825 0.675 1.5 1.5 1.5h5c0.825 0 1.5-0.675 1.5-1.5v-0.5h18v-4h-18v-0.5zM8 28v-4h4v4h-4z"></path>
</symbol>
<symbol id="icon-equalizer2" viewBox="0 0 32 32">
<title>equalizer2</title>
<path d="M28 14h0.5c0.825 0 1.5-0.675 1.5-1.5v-5c0-0.825-0.675-1.5-1.5-1.5h-0.5v-6h-4v6h-0.5c-0.825 0-1.5 0.675-1.5 1.5v5c0 0.825 0.675 1.5 1.5 1.5h0.5v18h4v-18zM24 8h4v4h-4v-4zM18.5 26c0.825 0 1.5-0.675 1.5-1.5v-5c0-0.825-0.675-1.5-1.5-1.5h-0.5v-18h-4v18h-0.5c-0.825 0-1.5 0.675-1.5 1.5v5c0 0.825 0.675 1.5 1.5 1.5h0.5v6h4v-6h0.5zM14 20h4v4h-4v-4zM8.5 14c0.825 0 1.5-0.675 1.5-1.5v-5c0-0.825-0.675-1.5-1.5-1.5h-0.5v-6h-4v6h-0.5c-0.825 0-1.5 0.675-1.5 1.5v5c0 0.825 0.675 1.5 1.5 1.5h0.5v18h4v-18h0.5zM4 8h4v4h-4v-4z"></path>
</symbol>
<symbol id="icon-cogs" viewBox="0 0 32 32">
<title>cogs</title>
<path d="M11.366 22.564l1.291-1.807-1.414-1.414-1.807 1.291c-0.335-0.187-0.694-0.337-1.071-0.444l-0.365-2.19h-2l-0.365 2.19c-0.377 0.107-0.736 0.256-1.071 0.444l-1.807-1.291-1.414 1.414 1.291 1.807c-0.187 0.335-0.337 0.694-0.443 1.071l-2.19 0.365v2l2.19 0.365c0.107 0.377 0.256 0.736 0.444 1.071l-1.291 1.807 1.414 1.414 1.807-1.291c0.335 0.187 0.694 0.337 1.071 0.444l0.365 2.19h2l0.365-2.19c0.377-0.107 0.736-0.256 1.071-0.444l1.807 1.291 1.414-1.414-1.291-1.807c0.187-0.335 0.337-0.694 0.444-1.071l2.19-0.365v-2l-2.19-0.365c-0.107-0.377-0.256-0.736-0.444-1.071zM7 27c-1.105 0-2-0.895-2-2s0.895-2 2-2 2 0.895 2 2-0.895 2-2 2zM32 12v-2l-2.106-0.383c-0.039-0.251-0.088-0.499-0.148-0.743l1.799-1.159-0.765-1.848-2.092 0.452c-0.132-0.216-0.273-0.426-0.422-0.629l1.219-1.761-1.414-1.414-1.761 1.219c-0.203-0.149-0.413-0.29-0.629-0.422l0.452-2.092-1.848-0.765-1.159 1.799c-0.244-0.059-0.492-0.109-0.743-0.148l-0.383-2.106h-2l-0.383 2.106c-0.251 0.039-0.499 0.088-0.743 0.148l-1.159-1.799-1.848 0.765 0.452 2.092c-0.216 0.132-0.426 0.273-0.629 0.422l-1.761-1.219-1.414 1.414 1.219 1.761c-0.149 0.203-0.29 0.413-0.422 0.629l-2.092-0.452-0.765 1.848 1.799 1.159c-0.059 0.244-0.109 0.492-0.148 0.743l-2.106 0.383v2l2.106 0.383c0.039 0.251 0.088 0.499 0.148 0.743l-1.799 1.159 0.765 1.848 2.092-0.452c0.132 0.216 0.273 0.426 0.422 0.629l-1.219 1.761 1.414 1.414 1.761-1.219c0.203 0.149 0.413 0.29 0.629 0.422l-0.452 2.092 1.848 0.765 1.159-1.799c0.244 0.059 0.492 0.109 0.743 0.148l0.383 2.106h2l0.383-2.106c0.251-0.039 0.499-0.088 0.743-0.148l1.159 1.799 1.848-0.765-0.452-2.092c0.216-0.132 0.426-0.273 0.629-0.422l1.761 1.219 1.414-1.414-1.219-1.761c0.149-0.203 0.29-0.413 0.422-0.629l2.092 0.452 0.765-1.848-1.799-1.159c0.059-0.244 0.109-0.492 0.148-0.743l2.106-0.383zM21 15.35c-2.402 0-4.35-1.948-4.35-4.35s1.948-4.35 4.35-4.35 4.35 1.948 4.35 4.35c0 2.402-1.948 4.35-4.35 4.35z"></path>
</symbol>
<symbol id="icon-menu3" viewBox="0 0 44 32">
<title>menu3</title>
<path d="M0 6h28v6h-28v-6zM0 14h28v6h-28v-6zM0 22h28v6h-28v-6z"></path>
<path d="M31 14l6 6 6-6z"></path>
</symbol>
<symbol id="icon-menu4" viewBox="0 0 44 32">
<title>menu4</title>
<path d="M0 6h28v6h-28v-6zM0 14h28v6h-28v-6zM0 22h28v6h-28v-6z"></path>
<path d="M31 20l6-6 6 6z"></path>
</symbol>
<symbol id="icon-arrow-up-left" viewBox="0 0 32 32">
<title>arrow-up-left</title>
<path d="M0 23l8-8 17 17 7-7-17-17 8-8h-23v23z"></path>
</symbol>
<symbol id="icon-arrow-up" viewBox="0 0 32 32">
<title>arrow-up</title>
<path d="M16 1l-15 15h9v16h12v-16h9z"></path>
</symbol>
<symbol id="icon-arrow-up-right" viewBox="0 0 32 32">
<title>arrow-up-right</title>
<path d="M9 0l8 8-17 17 7 7 17-17 8 8v-23h-23z"></path>
</symbol>
<symbol id="icon-arrow-right" viewBox="0 0 32 32">
<title>arrow-right</title>
<path d="M31 16l-15-15v9h-16v12h16v9z"></path>
</symbol>
<symbol id="icon-arrow-down-right" viewBox="0 0 32 32">
<title>arrow-down-right</title>
<path d="M32 9l-8 8-17-17-7 7 17 17-8 8h23v-23z"></path>
</symbol>
<symbol id="icon-arrow-down" viewBox="0 0 32 32">
<title>arrow-down</title>
<path d="M16 31l15-15h-9v-16h-12v16h-9z"></path>
</symbol>
<symbol id="icon-arrow-down-left" viewBox="0 0 32 32">
<title>arrow-down-left</title>
<path d="M23 32l-8-8 17-17-7-7-17 17-8-8v23h23z"></path>
</symbol>
<symbol id="icon-arrow-left" viewBox="0 0 32 32">
<title>arrow-left</title>
<path d="M1 16l15 15v-9h16v-12h-16v-9z"></path>
</symbol>
<symbol id="icon-arrow-up-left2" viewBox="0 0 32 32">
<title>arrow-up-left2</title>
<path d="M27.414 24.586l-16.586-16.586h7.172c1.105 0 2-0.895 2-2s-0.895-2-2-2h-12c-0.809 0-1.538 0.487-1.848 1.235-0.103 0.248-0.151 0.508-0.151 0.765h-0.001v12c0 1.105 0.895 2 2 2s2-0.895 2-2v-7.172l16.586 16.586c0.39 0.391 0.902 0.586 1.414 0.586s1.024-0.195 1.414-0.586c0.781-0.781 0.781-2.047 0-2.828z"></path>
</symbol>
<symbol id="icon-arrow-up2" viewBox="0 0 32 32">
<title>arrow-up2</title>
<path d="M27.414 12.586l-10-10c-0.781-0.781-2.047-0.781-2.828 0l-10 10c-0.781 0.781-0.781 2.047 0 2.828s2.047 0.781 2.828 0l6.586-6.586v19.172c0 1.105 0.895 2 2 2s2-0.895 2-2v-19.172l6.586 6.586c0.39 0.39 0.902 0.586 1.414 0.586s1.024-0.195 1.414-0.586c0.781-0.781 0.781-2.047 0-2.828z"></path>
</symbol>
<symbol id="icon-arrow-up-right2" viewBox="0 0 32 32">
<title>arrow-up-right2</title>
<path d="M7.414 27.414l16.586-16.586v7.172c0 1.105 0.895 2 2 2s2-0.895 2-2v-12c0-0.809-0.487-1.538-1.235-1.848-0.248-0.103-0.508-0.151-0.765-0.151v-0.001h-12c-1.105 0-2 0.895-2 2s0.895 2 2 2h7.172l-16.586 16.586c-0.391 0.39-0.586 0.902-0.586 1.414s0.195 1.024 0.586 1.414c0.781 0.781 2.047 0.781 2.828 0z"></path>
</symbol>
<symbol id="icon-arrow-right2" viewBox="0 0 32 32">
<title>arrow-right2</title>
<path d="M19.414 27.414l10-10c0.781-0.781 0.781-2.047 0-2.828l-10-10c-0.781-0.781-2.047-0.781-2.828 0s-0.781 2.047 0 2.828l6.586 6.586h-19.172c-1.105 0-2 0.895-2 2s0.895 2 2 2h19.172l-6.586 6.586c-0.39 0.39-0.586 0.902-0.586 1.414s0.195 1.024 0.586 1.414c0.781 0.781 2.047 0.781 2.828 0z"></path>
</symbol>
<symbol id="icon-arrow-down-right2" viewBox="0 0 32 32">
<title>arrow-down-right2</title>
<path d="M4.586 7.414l16.586 16.586h-7.171c-1.105 0-2 0.895-2 2s0.895 2 2 2h12c0.809 0 1.538-0.487 1.848-1.235 0.103-0.248 0.151-0.508 0.151-0.765h0.001v-12c0-1.105-0.895-2-2-2s-2 0.895-2 2v7.172l-16.586-16.586c-0.391-0.391-0.902-0.586-1.414-0.586s-1.024 0.195-1.414 0.586c-0.781 0.781-0.781 2.047 0 2.828z"></path>
</symbol>
<symbol id="icon-arrow-down2" viewBox="0 0 32 32">
<title>arrow-down2</title>
<path d="M27.414 19.414l-10 10c-0.781 0.781-2.047 0.781-2.828 0l-10-10c-0.781-0.781-0.781-2.047 0-2.828s2.047-0.781 2.828 0l6.586 6.586v-19.172c0-1.105 0.895-2 2-2s2 0.895 2 2v19.172l6.586-6.586c0.39-0.39 0.902-0.586 1.414-0.586s1.024 0.195 1.414 0.586c0.781 0.781 0.781 2.047 0 2.828z"></path>
</symbol>
<symbol id="icon-arrow-down-left2" viewBox="0 0 32 32">
<title>arrow-down-left2</title>
<path d="M24.586 4.586l-16.586 16.586v-7.172c0-1.105-0.895-2-2-2s-2 0.895-2 2v12c0 0.809 0.487 1.538 1.235 1.848 0.248 0.103 0.508 0.151 0.765 0.151v0.001l12-0c1.105 0 2-0.895 2-2s-0.895-2-2-2h-7.172l16.586-16.586c0.39-0.391 0.586-0.902 0.586-1.414s-0.195-1.024-0.586-1.414c-0.781-0.781-2.047-0.781-2.828 0v0z"></path>
</symbol>
<symbol id="icon-arrow-left2" viewBox="0 0 32 32">
<title>arrow-left2</title>
<path d="M12.586 27.414l-10-10c-0.781-0.781-0.781-2.047 0-2.828l10-10c0.781-0.781 2.047-0.781 2.828 0s0.781 2.047 0 2.828l-6.586 6.586h19.172c1.105 0 2 0.895 2 2s-0.895 2-2 2h-19.172l6.586 6.586c0.39 0.39 0.586 0.902 0.586 1.414s-0.195 1.024-0.586 1.414c-0.781 0.781-2.047 0.781-2.828 0z"></path>
</symbol>
<symbol id="icon-text-color" viewBox="0 0 32 32">
<title>text-color</title>
<path d="M10.063 26l1.8-6h8.274l1.8 6h3.551l-6-20h-6.976l-6 20h3.551zM14.863 10h2.274l1.8 6h-5.874l1.8-6z"></path>
</symbol>
<symbol id="icon-paragraph-left" viewBox="0 0 32 32">
<title>paragraph-left</title>
<path d="M0 2h32v4h-32zM0 8h20v4h-20zM0 20h20v4h-20zM0 14h32v4h-32zM0 26h32v4h-32z"></path>
</symbol>
<symbol id="icon-paragraph-center" viewBox="0 0 32 32">
<title>paragraph-center</title>
<path d="M0 2h32v4h-32zM6 8h20v4h-20zM6 20h20v4h-20zM0 14h32v4h-32zM0 26h32v4h-32z"></path>
</symbol>
<symbol id="icon-paragraph-right" viewBox="0 0 32 32">
<title>paragraph-right</title>
<path d="M0 2h32v4h-32zM12 8h20v4h-20zM12 20h20v4h-20zM0 14h32v4h-32zM0 26h32v4h-32z"></path>
</symbol>
<symbol id="icon-paragraph-justify" viewBox="0 0 32 32">
<title>paragraph-justify</title>
<path d="M0 2h32v4h-32zM0 8h32v4h-32zM0 14h32v4h-32zM0 20h32v4h-32zM0 26h32v4h-32z"></path>
</symbol>
<symbol id="icon-indent-increase" viewBox="0 0 32 32">
<title>indent-increase</title>
<path d="M0 2h32v4h-32zM12 8h20v4h-20zM12 14h20v4h-20zM12 20h20v4h-20zM0 26h32v4h-32zM0 22v-12l8 6z"></path>
</symbol>
<symbol id="icon-indent-decrease" viewBox="0 0 32 32">
<title>indent-decrease</title>
<path d="M0 2h32v4h-32zM12 8h20v4h-20zM12 14h20v4h-20zM12 20h20v4h-20zM0 26h32v4h-32zM8 10v12l-8-6z"></path>
</symbol>
<symbol id="icon-share" viewBox="0 0 32 32">
<title>share</title>
<path d="M8 20c0 0 1.838-6 12-6v6l12-8-12-8v6c-8 0-12 4.99-12 10zM22 24h-18v-12h3.934c0.315-0.372 0.654-0.729 1.015-1.068 1.374-1.287 3.018-2.27 4.879-2.932h-13.827v20h26v-8.395l-4 2.667v1.728z"></path>
</symbol>
<symbol id="icon-new-tab" viewBox="0 0 32 32">
<title>new-tab</title>
<path d="M6 2v24h24v-24h-24zM28 24h-20v-20h20v20zM4 28v-21l-2-2v25h25l-2-2h-21z"></path>
<path d="M11 8l5 5-6 6 3 3 6-6 5 5v-13z"></path>
</symbol>
<symbol id="icon-rotate_right" viewBox="0 0 24 24">
<title>rotate_right</title>
<path d="M16.875 15.469c0.563-0.75 0.891-1.594 1.031-2.484h2.016c-0.188 1.406-0.703 2.719-1.594 3.891zM12.984 17.906c0.891-0.141 1.734-0.469 2.484-1.031l1.453 1.453c-1.172 0.891-2.531 1.406-3.938 1.594v-2.016zM19.922 11.016h-2.016c-0.141-0.891-0.469-1.734-1.031-2.484l1.453-1.406c0.891 1.172 1.406 2.484 1.594 3.891zM15.563 5.531l-4.547 4.453v-3.891c-2.859 0.469-5.016 2.953-5.016 5.906s2.156 5.438 5.016 5.906v2.016c-3.938-0.469-7.031-3.844-7.031-7.922s3.094-7.453 7.031-7.922v-3.094z"></path>
</symbol>
<symbol id="icon-palette" viewBox="0 0 20 20">
<title>palette</title>
<path d="M15.74 2.608c-3.528-1.186-7.066-0.961-10.72 1.274-2.853 1.743-4.718 6.076-4.103 9.182 0.728 3.671 4.351 5.995 9.243 4.651 5.275-1.449 6.549-4.546 6.379-5.334s-2.665-1.652-1.718-3.498c1.188-2.313 3.129-1.149 3.982-1.622 0.855-0.472 0.539-3.442-3.063-4.653zM12.094 13.314c-0.798 0.218-1.623-0.256-1.843-1.059-0.221-0.805 0.248-1.631 1.046-1.849s1.622 0.254 1.843 1.059c0.22 0.803-0.248 1.631-1.046 1.849z"></path>
</symbol>
<symbol id="icon-repeat" viewBox="0 0 24 28">
<title>repeat</title>
<path d="M24 4v7c0 0.547-0.453 1-1 1h-7c-0.406 0-0.766-0.25-0.922-0.625-0.156-0.359-0.078-0.797 0.219-1.078l2.156-2.156c-1.469-1.359-3.406-2.141-5.453-2.141-4.406 0-8 3.594-8 8s3.594 8 8 8c2.484 0 4.781-1.125 6.312-3.109 0.078-0.109 0.219-0.172 0.359-0.187 0.141 0 0.281 0.047 0.391 0.141l2.141 2.156c0.187 0.172 0.187 0.469 0.031 0.672-2.281 2.75-5.656 4.328-9.234 4.328-6.609 0-12-5.391-12-12s5.391-12 12-12c3.078 0 6.062 1.234 8.266 3.313l2.031-2.016c0.281-0.297 0.719-0.375 1.094-0.219 0.359 0.156 0.609 0.516 0.609 0.922z"></path>
</symbol>
<symbol id="icon-exclamation-circle" viewBox="0 0 24 28">
<title>exclamation-circle</title>
<path d="M12 2c6.625 0 12 5.375 12 12s-5.375 12-12 12-12-5.375-12-12 5.375-12 12-12zM14 21.484v-2.969c0-0.281-0.219-0.516-0.484-0.516h-3c-0.281 0-0.516 0.234-0.516 0.516v2.969c0 0.281 0.234 0.516 0.516 0.516h3c0.266 0 0.484-0.234 0.484-0.516zM13.969 16.109l0.281-9.703c0-0.109-0.047-0.219-0.156-0.281-0.094-0.078-0.234-0.125-0.375-0.125h-3.437c-0.141 0-0.281 0.047-0.375 0.125-0.109 0.063-0.156 0.172-0.156 0.281l0.266 9.703c0 0.219 0.234 0.391 0.531 0.391h2.891c0.281 0 0.516-0.172 0.531-0.391z"></path>
</symbol>
<symbol id="icon-calendar" viewBox="0 0 26 28">
<title>calendar</title>
<path d="M2 26h4.5v-4.5h-4.5v4.5zM7.5 26h5v-4.5h-5v4.5zM2 20.5h4.5v-5h-4.5v5zM7.5 20.5h5v-5h-5v5zM2 14.5h4.5v-4.5h-4.5v4.5zM13.5 26h5v-4.5h-5v4.5zM7.5 14.5h5v-4.5h-5v4.5zM19.5 26h4.5v-4.5h-4.5v4.5zM13.5 20.5h5v-5h-5v5zM8 7v-4.5c0-0.266-0.234-0.5-0.5-0.5h-1c-0.266 0-0.5 0.234-0.5 0.5v4.5c0 0.266 0.234 0.5 0.5 0.5h1c0.266 0 0.5-0.234 0.5-0.5zM19.5 20.5h4.5v-5h-4.5v5zM13.5 14.5h5v-4.5h-5v4.5zM19.5 14.5h4.5v-4.5h-4.5v4.5zM20 7v-4.5c0-0.266-0.234-0.5-0.5-0.5h-1c-0.266 0-0.5 0.234-0.5 0.5v4.5c0 0.266 0.234 0.5 0.5 0.5h1c0.266 0 0.5-0.234 0.5-0.5zM26 6v20c0 1.094-0.906 2-2 2h-22c-1.094 0-2-0.906-2-2v-20c0-1.094 0.906-2 2-2h2v-1.5c0-1.375 1.125-2.5 2.5-2.5h1c1.375 0 2.5 1.125 2.5 2.5v1.5h6v-1.5c0-1.375 1.125-2.5 2.5-2.5h1c1.375 0 2.5 1.125 2.5 2.5v1.5h2c1.094 0 2 0.906 2 2z"></path>
</symbol>
<symbol id="icon-rotate-left" viewBox="0 0 24 28">
<title>rotate-left</title>
<path d="M24 14c0 6.609-5.391 12-12 12-3.578 0-6.953-1.578-9.234-4.328-0.156-0.203-0.141-0.5 0.031-0.672l2.141-2.156c0.109-0.094 0.25-0.141 0.391-0.141 0.141 0.016 0.281 0.078 0.359 0.187 1.531 1.984 3.828 3.109 6.312 3.109 4.406 0 8-3.594 8-8s-3.594-8-8-8c-2.047 0-3.984 0.781-5.437 2.141l2.141 2.156c0.297 0.281 0.375 0.719 0.219 1.078-0.156 0.375-0.516 0.625-0.922 0.625h-7c-0.547 0-1-0.453-1-1v-7c0-0.406 0.25-0.766 0.625-0.922 0.359-0.156 0.797-0.078 1.078 0.219l2.031 2.016c2.203-2.078 5.187-3.313 8.266-3.313 6.609 0 12 5.391 12 12z"></path>
</symbol>
<symbol id="icon-paint-brush" viewBox="0 0 28 28">
<title>paint-brush</title>
<path d="M25.234 0c1.422 0 2.734 1.062 2.734 2.547 0 0.828-0.328 1.625-0.703 2.359-1.219 2.312-5.313 9.953-7.266 11.75-0.953 0.891-2.078 1.422-3.406 1.422-2.641 0-4.797-2.25-4.797-4.875 0-1.25 0.516-2.469 1.437-3.313l9.969-9.047c0.547-0.5 1.266-0.844 2.031-0.844zM11.031 16.156c0.812 1.578 2.297 2.766 4.016 3.219l0.016 1.109c0.094 4.453-3 7.516-7.469 7.516-5.297 0-7.594-4.219-7.594-9.016 0.578 0.391 2.594 2 3.25 2 0.391 0 0.719-0.219 0.859-0.578 1.328-3.469 3.406-4.094 6.922-4.25z"></path>
</symbol>
</defs>
</svg>
